<svg width="43" height="36" viewBox="0 0 43 36" fill="none" xmlns="http://www.w3.org/2000/svg">
<path d="M30.7318 22.6415H28.7896L28.1012 22.0858C30.5106 19.7393 31.9611 16.693 31.9611 13.3791C31.9611 5.98971 24.8067 0 15.9806 0C7.15437 0 0 5.98971 0 13.3791C0 20.7684 7.15437 26.7581 15.9806 26.7581C19.9388 26.7581 23.5775 25.5437 26.3802 23.5266L27.044 24.1029V25.729L39.3368 36L43 32.9331L30.7318 22.6415ZM15.9806 22.6415C9.85878 22.6415 4.9171 18.5043 4.9171 13.3791C4.9171 8.25386 9.85878 4.11664 15.9806 4.11664C22.1023 4.11664 27.044 8.25386 27.044 13.3791C27.044 18.5043 22.1023 22.6415 15.9806 22.6415Z" fill="black"/>
</svg>
