<svg width="300" height="300" viewBox="0 0 300 300" fill="none" xmlns="http://www.w3.org/2000/svg">
<circle cx="150" cy="150" r="148.5" stroke="white" stroke-width="3"/>
<circle cx="150.5" cy="149.5" r="106.5" stroke="white" stroke-width="2"/>
<path d="M84.792 120.28C83.9813 118.787 82.808 117.656 81.272 116.888C79.7787 116.077 78.008 115.672 75.96 115.672C72.4187 115.672 69.5813 116.845 67.448 119.192C65.3147 121.496 64.248 124.589 64.248 128.472C64.248 132.611 65.3573 135.853 67.576 138.2C69.8373 140.504 72.9307 141.656 76.856 141.656C79.544 141.656 81.8053 140.973 83.64 139.608C85.5173 138.243 86.8827 136.28 87.736 133.72H73.848V125.656H97.656V135.832C96.8453 138.563 95.4587 141.101 93.496 143.448C91.576 145.795 89.1227 147.693 86.136 149.144C83.1493 150.595 79.7787 151.32 76.024 151.32C71.5867 151.32 67.6187 150.36 64.12 148.44C60.664 146.477 57.9547 143.768 55.992 140.312C54.072 136.856 53.112 132.909 53.112 128.472C53.112 124.035 54.072 120.088 55.992 116.632C57.9547 113.133 60.664 110.424 64.12 108.504C67.576 106.541 71.5227 105.56 75.96 105.56C81.336 105.56 85.8587 106.861 89.528 109.464C93.24 112.067 95.6933 115.672 96.888 120.28H84.792ZM119.974 151.512C116.475 151.512 113.318 150.765 110.502 149.272C107.729 147.779 105.531 145.645 103.91 142.872C102.331 140.099 101.542 136.856 101.542 133.144C101.542 129.475 102.353 126.253 103.974 123.48C105.595 120.664 107.814 118.509 110.63 117.016C113.446 115.523 116.603 114.776 120.102 114.776C123.601 114.776 126.758 115.523 129.574 117.016C132.39 118.509 134.609 120.664 136.23 123.48C137.851 126.253 138.662 129.475 138.662 133.144C138.662 136.813 137.83 140.056 136.166 142.872C134.545 145.645 132.305 147.779 129.446 149.272C126.63 150.765 123.473 151.512 119.974 151.512ZM119.974 142.04C122.065 142.04 123.835 141.272 125.286 139.736C126.779 138.2 127.526 136.003 127.526 133.144C127.526 130.285 126.801 128.088 125.35 126.552C123.942 125.016 122.193 124.248 120.102 124.248C117.969 124.248 116.198 125.016 114.79 126.552C113.382 128.045 112.678 130.243 112.678 133.144C112.678 136.003 113.361 138.2 114.726 139.736C116.134 141.272 117.883 142.04 119.974 142.04ZM176.788 106.072V114.84H164.884V151H153.94V114.84H142.036V106.072H176.788ZM217.545 115.288V151H206.601V146.136C205.491 147.715 203.977 148.995 202.057 149.976C200.179 150.915 198.089 151.384 195.785 151.384C193.054 151.384 190.643 150.787 188.553 149.592C186.462 148.355 184.841 146.584 183.689 144.28C182.537 141.976 181.961 139.267 181.961 136.152V115.288H192.841V134.68C192.841 137.069 193.459 138.925 194.697 140.248C195.934 141.571 197.598 142.232 199.689 142.232C201.822 142.232 203.507 141.571 204.745 140.248C205.982 138.925 206.601 137.069 206.601 134.68V115.288H217.545ZM236.35 121.24C237.63 119.277 239.23 117.741 241.15 116.632C243.07 115.48 245.203 114.904 247.55 114.904V126.488H244.542C241.811 126.488 239.763 127.085 238.398 128.28C237.032 129.432 236.35 131.48 236.35 134.424V151H225.406V115.288H236.35V121.24Z" fill="white"/>
<path d="M60.6797 252.13L75.9467 242.707L77.4689 243.877L72.2862 261.053L70.8401 259.941L75.5961 244.738L62.0877 253.213L60.6797 252.13Z" fill="white"/>
<path d="M55.4054 246.819L67.0882 234.78L68.2939 235.95L56.6111 247.989L55.4054 246.819Z" fill="white"/>
<path d="M52.2162 223.932L57.0477 229.84L61.0585 228.452L62.1828 229.826L45.4893 235.572L44.289 234.104L53.2492 218.902L54.3735 220.277L52.2162 223.932ZM51.4577 225.204L46.5317 233.511L55.6511 230.331L51.4577 225.204Z" fill="white"/>
<path d="M34.2539 210.122C33.5421 211.092 33.1665 212.163 33.1272 213.335C33.0661 214.5 33.37 215.657 34.039 216.804C34.6678 217.882 35.4808 218.704 36.4781 219.271C37.4754 219.838 38.5822 220.1 39.7984 220.057C41.0008 220.023 42.2101 219.651 43.4264 218.942C44.6426 218.232 45.5687 217.359 46.2046 216.321C46.8404 215.284 47.1572 214.191 47.155 213.044C47.1528 211.897 46.8374 210.784 46.2087 209.706C45.6202 208.697 44.878 207.917 43.9821 207.365C43.0642 206.808 42.0634 206.521 40.9797 206.505C39.874 206.483 38.762 206.752 37.6437 207.311L41.1984 213.406L40.0167 214.095L35.5672 206.466L36.6246 205.85C37.9364 205.177 39.292 204.85 40.6913 204.867C42.0768 204.892 43.373 205.257 44.5799 205.961C45.7788 206.651 46.7571 207.645 47.5148 208.945C48.2966 210.285 48.695 211.683 48.7098 213.138C48.7108 214.6 48.337 215.976 47.5882 217.265C46.8176 218.547 45.7205 219.604 44.2969 220.434C42.8733 221.265 41.4204 221.695 39.9382 221.726C38.434 221.751 37.0526 221.399 35.7939 220.67C34.5213 219.949 33.4941 218.918 32.7122 217.578C31.8094 216.03 31.4065 214.449 31.5034 212.837C31.6003 211.225 32.1866 209.753 33.2625 208.422L34.2539 210.122Z" fill="white"/>
<path d="M26.8186 201.945L32.6381 199.628L30.2851 193.719L31.5784 193.204L33.9314 199.113L39.8401 196.76L37.2207 190.182L38.5139 189.667L41.7549 197.806L26.1469 204.021L22.906 195.883L24.1992 195.368L26.8186 201.945Z" fill="white"/>
<path d="M33.6951 171.516L34.0919 173.148L22.5735 185.507L36.2861 182.173L36.683 183.806L20.3818 187.769L19.9849 186.136L31.48 173.783L17.7908 177.111L17.3939 175.479L33.6951 171.516Z" fill="white"/>
<path d="M32.7734 161.081C32.8768 162.18 32.777 163.17 32.474 164.05C32.1696 164.914 31.6974 165.618 31.0573 166.16C30.4173 166.702 29.6766 167.029 28.8353 167.14L28.6691 165.372C29.474 165.216 30.1572 164.79 30.7185 164.095C31.2639 163.401 31.479 162.44 31.3636 161.214C31.2573 160.083 30.8867 159.217 30.2518 158.618C29.5995 158.005 28.8273 157.74 27.9353 157.824C27.2184 157.891 26.6622 158.128 26.2665 158.535C25.8549 158.943 25.5711 159.428 25.4149 159.989C25.2428 160.552 25.0743 161.323 24.9092 162.303C24.7114 163.446 24.4998 164.358 24.2745 165.038C24.0492 165.718 23.6556 166.318 23.0937 166.836C22.5318 167.355 21.7331 167.663 20.6977 167.761C19.8375 167.842 19.0519 167.691 18.3409 167.307C17.614 166.926 17.0212 166.347 16.5625 165.57C16.1038 164.794 15.825 163.88 15.7261 162.829C15.5809 161.283 15.8464 160.005 16.5226 158.993C17.1814 157.967 18.1015 157.326 19.2827 157.07L19.4535 158.886C18.779 159.062 18.2089 159.493 17.7431 160.18C17.2614 160.868 17.0715 161.754 17.1733 162.837C17.2677 163.841 17.6171 164.652 18.2216 165.27C18.8102 165.889 19.5665 166.156 20.4904 166.069C21.1913 166.003 21.7396 165.767 22.1352 165.36C22.5309 164.953 22.8148 164.468 22.9869 163.906C23.1574 163.327 23.326 162.556 23.4925 161.592C23.6933 160.48 23.9136 159.576 24.1534 158.878C24.3772 158.182 24.7701 157.575 25.332 157.056C25.8939 156.537 26.6846 156.23 27.7041 156.134C28.4846 156.06 29.2448 156.198 29.9847 156.546C30.7245 156.894 31.3477 157.455 31.8542 158.227C32.3607 158.999 32.6671 159.95 32.7734 161.081Z" fill="white"/>
<path d="M29.9772 130.125L28.9736 137.691L32.7305 139.666L32.497 141.427L16.8855 133.182L17.1349 131.303L34.3527 127.437L34.1191 129.198L29.9772 130.125ZM28.531 130.442L19.1023 132.532L27.66 137.008L28.531 130.442Z" fill="white"/>
<path d="M37.692 116.443C37.2491 117.93 36.5023 119.177 35.4515 120.183C34.3854 121.184 33.1263 121.853 31.6741 122.188C30.2112 122.504 28.69 122.427 27.1105 121.956C25.5311 121.486 24.223 120.721 23.1864 119.661C22.139 118.581 21.4506 117.333 21.1212 115.916C20.7766 114.494 20.8257 113.04 21.2686 111.552C21.716 110.05 22.4728 108.798 23.5389 107.796C24.5897 106.79 25.8465 106.129 27.3095 105.814C28.757 105.494 30.2706 105.569 31.85 106.039C33.4295 106.509 34.7452 107.277 35.7972 108.341C36.8338 109.401 37.5245 110.642 37.8692 112.063C38.1985 113.48 38.1395 114.94 37.692 116.443ZM36.2889 116.025C36.645 114.829 36.6886 113.673 36.4197 112.558C36.1507 111.443 35.5847 110.456 34.7217 109.598C33.8433 108.736 32.7217 108.101 31.3569 107.695C29.9921 107.289 28.7138 107.209 27.522 107.455C26.3302 107.701 25.3168 108.217 24.4816 109.003C23.6465 109.79 23.0508 110.781 22.6947 111.977C22.3386 113.173 22.295 114.329 22.5639 115.444C22.8329 116.559 23.3989 117.546 24.2619 118.404C25.125 119.262 26.2389 119.894 27.6037 120.3C28.9685 120.706 30.2544 120.789 31.4615 120.547C32.6533 120.301 33.6668 119.785 34.5019 118.999C35.3371 118.212 35.9327 117.221 36.2889 116.025Z" fill="white"/>
<path d="M44.1818 100.113C43.7089 101.11 43.1173 101.91 42.4071 102.512C41.7037 103.099 40.9384 103.462 40.1111 103.601C39.2838 103.74 38.4802 103.643 37.7002 103.308L38.4609 101.703C39.2326 101.981 40.0374 101.964 40.8754 101.653C41.6989 101.335 42.3745 100.619 42.9022 99.5061C43.3888 98.4796 43.5124 97.5466 43.2729 96.7071C43.0258 95.8462 42.4974 95.2239 41.6878 94.8402C41.0372 94.5318 40.4379 94.4513 39.8899 94.5988C39.3274 94.7394 38.8357 95.011 38.4148 95.4134C37.9793 95.8091 37.4404 96.3858 36.7978 97.1436C36.0434 98.0254 35.3955 98.7011 34.8543 99.1705C34.3131 99.6399 33.6684 99.954 32.9202 100.113C32.1721 100.272 31.3281 100.128 30.3884 99.6829C29.6076 99.3129 29.0096 98.7815 28.5943 98.0888C28.1645 97.3893 27.9509 96.5886 27.9534 95.6868C27.9559 94.7849 28.1834 93.8569 28.6357 92.9027C29.3005 91.5003 30.182 90.5371 31.2804 90.013C32.3711 89.4676 33.4895 89.3869 34.6355 89.7708L33.8542 91.419C33.1845 91.2255 32.4741 91.3048 31.7228 91.657C30.9571 92.0023 30.3412 92.6665 29.8752 93.6496C29.4434 94.5605 29.3294 95.436 29.5332 96.2763C29.7224 97.1097 30.2363 97.7251 31.0749 98.1226C31.711 98.4242 32.3031 98.5012 32.8511 98.3537C33.3991 98.2062 33.8908 97.9347 34.3262 97.539C34.7685 97.129 35.3075 96.5522 35.9432 95.8089C36.6839 94.956 37.3355 94.291 37.8981 93.814C38.4462 93.3301 39.0943 93.0087 39.8424 92.8499C40.5906 92.691 41.4273 92.8309 42.3526 93.2695C43.061 93.6054 43.6442 94.112 44.1022 94.7895C44.5602 95.4669 44.8096 96.2668 44.8504 97.1892C44.8912 98.1116 44.6684 99.0861 44.1818 100.113Z" fill="white"/>
<path d="M51.9313 66.3491C53.0653 67.2365 53.6879 68.3231 53.7992 69.6089C53.9104 70.8946 53.3842 72.2809 52.2207 73.7678L50.1352 76.4327L55.7675 80.8404L54.7321 82.1635L41.5207 71.8246L44.6416 67.8366C45.7953 66.3623 47.0096 65.5247 48.2843 65.3236C49.569 65.1099 50.7846 65.4517 51.9313 66.3491ZM51.0867 72.8803C52.7038 70.8139 52.6304 69.0904 50.8663 67.7099C49.9843 67.0197 49.1242 66.7427 48.286 66.8792C47.4478 67.0156 46.6048 67.6256 45.7567 68.7092L43.6712 71.3742L49.0011 75.5453L51.0867 72.8803Z" fill="white"/>
<path d="M70.4831 64.9259C69.3512 65.9878 68.0781 66.6886 66.6636 67.0283C65.2382 67.3564 63.8138 67.2997 62.3903 66.8581C60.9675 66.3939 59.6924 65.5608 58.5648 64.359C57.4372 63.1571 56.6926 61.8373 56.331 60.3995C55.97 58.9391 56.0042 57.5139 56.4334 56.124C56.8516 54.7224 57.6267 53.4907 58.7585 52.4288C59.902 51.3559 61.1865 50.6555 62.6119 50.3274C64.0264 49.9877 65.445 50.0499 66.8677 50.5141C68.2795 50.9666 69.5492 51.7938 70.6768 52.9957C71.8044 54.1975 72.5545 55.5232 72.9271 56.9727C73.2887 58.4104 73.2604 59.8301 72.8421 61.2317C72.413 62.6217 71.6266 63.853 70.4831 64.9259ZM69.4814 63.8582C70.3915 63.0043 71.0113 62.028 71.3407 60.9292C71.67 59.8304 71.678 58.693 71.3646 57.5171C71.0402 56.3295 70.3909 55.2165 69.4166 54.178C68.4423 53.1395 67.3784 52.4264 66.2248 52.0387C65.0713 51.651 63.9357 51.5865 62.8182 51.8451C61.7006 52.1038 60.6868 52.6601 59.7766 53.514C58.8665 54.3678 58.2467 55.3442 57.9174 56.443C57.588 57.5418 57.58 58.6792 57.8934 59.8551C58.2068 61.031 58.8507 62.1382 59.825 63.1767C60.7993 64.2152 61.8687 64.9341 63.0332 65.3335C64.1867 65.7212 65.3223 65.7857 66.4398 65.527C67.5574 65.2684 68.5712 64.7121 69.4814 63.8582Z" fill="white"/>
<path d="M90.4547 49.7664L89.0604 50.7035L73.4798 44.1719L81.3516 55.8844L79.9573 56.8216L70.5995 42.898L71.9938 41.9609L87.561 48.4726L79.7026 36.7799L81.0969 35.8428L90.4547 49.7664Z" fill="white"/>
<path d="M96.8131 27.9646L97.4202 29.2172L93.2302 31.2477L99.9392 45.0918L98.4273 45.8244L91.7184 31.9804L87.5069 34.0213L86.8998 32.7686L96.8131 27.9646Z" fill="white"/>
<path d="M116.073 39.1611C114.592 39.6231 113.14 39.6986 111.719 39.3875C110.294 39.0611 109.036 38.3888 107.948 37.3707C106.87 36.3325 106.086 35.0267 105.595 33.4535C105.105 31.8802 105.01 30.3677 105.312 28.9162C105.624 27.4445 106.276 26.1769 107.269 25.1133C108.256 24.0344 109.491 23.264 110.972 22.802C112.469 22.3352 113.931 22.265 115.356 22.5914C116.778 22.9025 118.027 23.5771 119.105 24.6153C120.178 25.6383 120.96 26.9364 121.45 28.5097C121.941 30.0829 122.038 31.603 121.741 33.0699C121.44 34.5214 120.795 35.7867 119.807 36.8656C118.815 37.9292 117.57 38.6944 116.073 39.1611ZM115.638 37.7635C116.829 37.392 117.813 36.7837 118.588 35.9385C119.364 35.0933 119.867 34.0733 120.098 32.8784C120.324 31.6683 120.225 30.3835 119.801 29.024C119.377 27.6646 118.73 26.5589 117.861 25.707C116.992 24.855 115.999 24.3017 114.88 24.0472C113.762 23.7926 112.607 23.851 111.415 24.2225C110.224 24.594 109.24 25.2024 108.465 26.0475C107.689 26.8927 107.186 27.9127 106.955 29.1076C106.725 30.3025 106.821 31.5796 107.245 32.9391C107.669 34.2985 108.318 35.4119 109.191 36.2791C110.06 37.131 111.054 37.6843 112.173 37.9389C113.291 38.1935 114.446 38.135 115.638 37.7635Z" fill="white"/>
<path d="M133.247 35.4399C132.155 35.6038 131.162 35.5588 130.266 35.305C129.386 35.0487 128.658 34.6161 128.081 34.0069C127.504 33.3978 127.137 32.6763 126.98 31.8425L128.736 31.5788C128.936 32.3739 129.399 33.0325 130.125 33.5546C130.848 34.0608 131.819 34.2225 133.037 34.0396C134.16 33.871 135.004 33.4532 135.567 32.7862C136.144 32.101 136.365 31.3153 136.232 30.4293C136.126 29.7172 135.858 29.1749 135.43 28.8023C135 28.4139 134.5 28.1573 133.931 28.0323C133.36 27.8916 132.581 27.7659 131.593 27.6552C130.441 27.5208 129.518 27.3599 128.827 27.1725C128.135 26.9851 127.515 26.6252 126.966 26.0928C126.417 25.5604 126.065 24.78 125.911 23.7515C125.783 22.8971 125.89 22.1043 126.233 21.3733C126.574 20.6264 127.12 20.0025 127.87 19.5016C128.62 19.0008 129.517 18.6719 130.561 18.5152C132.096 18.2848 133.387 18.4793 134.435 19.0986C135.496 19.6998 136.186 20.583 136.507 21.7483L134.703 22.0191C134.49 21.3554 134.028 20.8099 133.317 20.3828C132.603 19.9398 131.708 19.7991 130.632 19.9606C129.636 20.1102 128.845 20.5039 128.261 21.1416C127.675 21.7636 127.451 22.5334 127.589 23.4511C127.693 24.1473 127.96 24.6817 128.388 25.0543C128.816 25.4268 129.315 25.6835 129.887 25.8243C130.474 25.9627 131.253 26.0884 132.224 26.2014C133.346 26.3405 134.261 26.5105 134.971 26.7114C135.678 26.8964 136.306 27.2552 136.855 27.7875C137.404 28.3199 137.755 29.0924 137.907 30.1051C138.023 30.8804 137.928 31.647 137.621 32.405C137.314 33.163 136.789 33.8161 136.047 34.3645C135.304 34.9128 134.371 35.2713 133.247 35.4399Z" fill="white"/>
<path d="M171.777 19.1112L170.229 35.5986L168.556 35.4415L169.793 22.2754L162.678 34.8893L161.459 34.7749L156.813 21.1045L155.581 34.2227L153.908 34.0656L155.457 17.5782L157.225 17.7443L162.263 32.6327L169.985 18.9428L171.777 19.1112Z" fill="white"/>
<path d="M185.184 35.4547L177.8 33.5264L175.377 37.0112L173.658 36.5625L183.764 22.0861L185.598 22.5651L187.312 40.128L185.594 39.6793L185.184 35.4547ZM185.048 33.9805L184.136 24.366L178.639 32.3069L185.048 33.9805Z" fill="white"/>
<path d="M198.802 26.819L192.73 42.4575L191.164 41.8494L197.236 26.2109L198.802 26.819Z" fill="white"/>
<path d="M204.644 48.178C203.665 47.6671 202.889 47.0453 202.315 46.3125C201.755 45.5871 201.421 44.8084 201.314 43.9764C201.207 43.1444 201.335 42.3451 201.699 41.5785L203.274 42.4003C202.967 43.1607 202.953 43.9656 203.232 44.8149C203.518 45.65 204.207 46.3526 205.299 46.9227C206.306 47.4483 207.234 47.6076 208.082 47.4005C208.951 47.1866 209.593 46.6826 210.008 45.8883C210.341 45.25 210.445 44.6542 210.318 44.1009C210.199 43.5335 209.947 43.0317 209.561 42.5956C209.182 42.1453 208.627 41.5846 207.894 40.9135C207.042 40.1257 206.392 39.4524 205.943 38.8936C205.495 38.3347 205.206 37.6784 205.076 36.9247C204.946 36.171 205.121 35.3332 205.603 34.4112C206.002 33.6453 206.556 33.0681 207.264 32.6797C207.98 32.2771 208.788 32.0943 209.689 32.1315C210.59 32.1686 211.509 32.4315 212.445 32.9202C213.821 33.6383 214.75 34.5562 215.231 35.6738C215.734 36.7847 215.772 37.9053 215.344 39.0358L213.727 38.1918C213.947 37.53 213.895 36.8171 213.571 36.0529C213.256 35.2745 212.616 34.6335 211.651 34.1301C210.758 33.6637 209.887 33.5161 209.04 33.6874C208.2 33.8446 207.565 34.3345 207.135 35.1572C206.81 35.7813 206.71 36.3699 206.836 36.9232C206.963 37.4764 207.215 37.9782 207.594 38.4285C207.987 38.8862 208.542 39.4469 209.261 40.1107C210.084 40.8836 210.724 41.5603 211.179 42.1407C211.641 42.707 211.938 43.367 212.068 44.1207C212.198 44.8744 212.026 45.7051 211.552 46.6129C211.189 47.3079 210.661 47.8712 209.966 48.3028C209.271 48.7344 208.463 48.953 207.539 48.9583C206.616 48.9637 205.651 48.7036 204.644 48.178Z" fill="white"/>
<path d="M233.762 57.867C234.369 58.6113 234.67 59.4945 234.664 60.5167C234.658 61.539 234.319 62.447 233.647 63.2408C233.099 63.888 232.438 64.3347 231.664 64.5807C230.912 64.8249 230.096 64.836 229.215 64.6141C228.344 64.38 227.475 63.896 226.608 63.1621L222.175 59.4097L233.013 46.605L237.318 50.2488C238.612 51.3446 239.342 52.4759 239.507 53.6429C239.685 54.8201 239.37 55.8851 238.564 56.8376C237.892 57.6314 237.131 58.0978 236.279 58.2367C235.438 58.3634 234.599 58.2402 233.762 57.867ZM229.504 53.3508L232.49 55.8783C233.357 56.6122 234.193 56.9741 234.998 56.9639C235.826 56.9518 236.545 56.5855 237.155 55.865C237.754 55.1566 237.987 54.3994 237.851 53.5932C237.729 52.7974 237.215 52.017 236.311 51.2521L233.381 48.7712L229.504 53.3508ZM227.431 62.0037C228.359 62.7894 229.266 63.1794 230.151 63.1739C231.048 63.1788 231.822 62.7965 232.473 62.0272C233.125 61.2578 233.367 60.4146 233.2 59.4975C233.055 58.5786 232.525 57.7315 231.609 56.9562L228.605 54.4133L224.372 59.4143L227.431 62.0037Z" fill="white"/>
<path d="M246.537 61.0707L241.896 65.2777L246.168 69.9898L245.136 70.9247L240.865 66.2126L236.153 70.4841L240.908 75.7297L239.876 76.6646L233.993 70.1743L246.44 58.8911L252.324 65.3813L251.292 66.3162L246.537 61.0707Z" fill="white"/>
<path d="M245.742 82.2446L249.228 87.1572L248.113 87.9489L243.654 81.6663L257.335 71.9571L258.307 73.3272L245.742 82.2446Z" fill="white"/>
<path d="M254.105 99.0575C253.393 97.6785 253.067 96.2623 253.127 94.8088C253.201 93.348 253.645 91.9933 254.458 90.7447C255.294 89.5029 256.444 88.504 257.908 87.7478C259.372 86.9916 260.845 86.636 262.327 86.681C263.83 86.733 265.192 87.1553 266.412 87.948C267.646 88.7333 268.619 89.8155 269.331 91.1944C270.05 92.5876 270.373 94.0146 270.299 95.4754C270.24 96.9289 269.792 98.2765 268.957 99.5182C268.136 100.753 266.993 101.748 265.529 102.504C264.064 103.26 262.584 103.62 261.088 103.582C259.606 103.537 258.248 103.122 257.014 102.336C255.795 101.544 254.825 100.451 254.105 99.0575ZM255.406 98.3857C255.979 99.4945 256.749 100.358 257.716 100.975C258.683 101.592 259.775 101.91 260.991 101.93C262.222 101.943 263.47 101.622 264.736 100.969C266.001 100.315 266.978 99.4868 267.666 98.4831C268.354 97.4795 268.726 96.4048 268.783 95.2591C268.84 94.1134 268.581 92.9861 268.009 91.8772C267.436 90.7684 266.666 89.9054 265.699 89.2883C264.732 88.6712 263.641 88.3527 262.424 88.3328C261.207 88.3129 259.966 88.6297 258.701 89.2831C257.436 89.9365 256.452 90.7688 255.749 91.7798C255.061 92.7834 254.689 93.8581 254.632 95.0038C254.576 96.1495 254.834 97.2768 255.406 98.3857Z" fill="white"/>
<path d="M260.751 115.325C260.4 114.278 260.272 113.292 260.367 112.365C260.466 111.455 260.766 110.662 261.266 109.988C261.765 109.315 262.412 108.828 263.206 108.528L263.771 110.212C263.022 110.547 262.454 111.117 262.066 111.922C261.693 112.722 261.702 113.707 262.094 114.875C262.455 115.952 263.013 116.71 263.767 117.149C264.542 117.598 265.354 117.68 266.204 117.395C266.887 117.166 267.374 116.809 267.667 116.322C267.975 115.831 268.141 115.294 268.165 114.713C268.204 114.126 268.193 113.336 268.131 112.345C268.063 111.186 268.061 110.25 268.126 109.537C268.19 108.823 268.437 108.15 268.866 107.516C269.295 106.883 270.003 106.401 270.989 106.071C271.808 105.796 272.607 105.765 273.387 105.976C274.182 106.182 274.891 106.611 275.514 107.262C276.138 107.914 276.617 108.74 276.953 109.742C277.446 111.213 277.479 112.518 277.05 113.658C276.643 114.807 275.893 115.64 274.801 116.158L274.221 114.429C274.838 114.104 275.295 113.554 275.592 112.78C275.904 112 275.887 111.094 275.542 110.063C275.221 109.107 274.696 108.397 273.967 107.933C273.253 107.463 272.456 107.376 271.576 107.671C270.908 107.895 270.428 108.25 270.136 108.736C269.843 109.222 269.677 109.759 269.637 110.346C269.603 110.948 269.615 111.738 269.672 112.714C269.729 113.842 269.721 114.773 269.646 115.507C269.587 116.236 269.343 116.917 268.914 117.55C268.485 118.183 267.785 118.662 266.814 118.988C266.07 119.237 265.299 119.276 264.499 119.105C263.699 118.935 262.965 118.531 262.296 117.895C261.627 117.259 261.112 116.402 260.751 115.325Z" fill="white"/>
<path d="M282.792 138.897C282.965 140.745 282.779 142.361 282.234 143.746C281.69 145.131 280.821 146.233 279.628 147.052C278.435 147.871 276.971 148.362 275.234 148.525C273.514 148.687 271.992 148.476 270.667 147.893C269.359 147.309 268.308 146.387 267.515 145.128C266.738 143.867 266.263 142.312 266.089 140.465L265.625 135.518L282.328 133.951L282.792 138.897ZM267.475 140.335C267.693 142.66 268.465 144.372 269.789 145.469C271.131 146.58 272.893 147.034 275.075 146.829C277.274 146.623 278.928 145.849 280.04 144.507C281.169 143.18 281.624 141.353 281.406 139.027L281.099 135.754L267.168 137.061L267.475 140.335Z" fill="white"/>
<path d="M266.048 160.904C266.154 159.356 266.609 157.975 267.414 156.764C268.234 155.553 269.316 154.624 270.659 153.978C272.017 153.349 273.518 153.091 275.162 153.203C276.807 153.316 278.251 153.775 279.495 154.582C280.753 155.405 281.699 156.472 282.331 157.782C282.979 159.094 283.25 160.524 283.145 162.072C283.038 163.636 282.574 165.024 281.754 166.235C280.949 167.447 279.868 168.367 278.51 168.996C277.168 169.626 275.675 169.885 274.031 169.773C272.386 169.66 270.934 169.2 269.674 168.393C268.431 167.586 267.485 166.527 266.836 165.216C266.204 163.906 265.942 162.468 266.048 160.904ZM267.509 161.004C267.424 162.249 267.635 163.386 268.142 164.415C268.649 165.444 269.418 166.282 270.448 166.93C271.494 167.579 272.728 167.952 274.148 168.049C275.569 168.146 276.834 167.943 277.943 167.442C279.051 166.94 279.927 166.214 280.569 165.264C281.211 164.313 281.575 163.216 281.66 161.971C281.745 160.725 281.534 159.588 281.027 158.559C280.52 157.53 279.751 156.692 278.721 156.044C277.691 155.397 276.465 155.024 275.045 154.927C273.624 154.83 272.351 155.032 271.227 155.532C270.118 156.034 269.242 156.76 268.6 157.711C267.958 158.661 267.594 159.759 267.509 161.004Z" fill="white"/>
<path d="M268.186 193.145C267.733 193.992 267.034 194.61 266.089 194.999C265.143 195.388 264.175 195.425 263.183 195.111C262.375 194.855 261.708 194.418 261.182 193.798C260.667 193.199 260.342 192.45 260.207 191.551C260.087 190.657 260.199 189.669 260.542 188.586L262.295 183.048L278.288 188.112L276.586 193.489C276.074 195.106 275.312 196.215 274.298 196.818C273.281 197.435 272.177 197.556 270.987 197.179C269.995 196.865 269.272 196.342 268.815 195.61C268.374 194.883 268.164 194.062 268.186 193.145ZM270.711 187.475L269.53 191.205C269.187 192.288 269.176 193.199 269.496 193.938C269.826 194.697 270.441 195.219 271.341 195.504C272.226 195.784 273.014 195.706 273.706 195.271C274.393 194.85 274.915 194.076 275.272 192.947L276.431 189.286L270.711 187.475ZM261.928 188.899C261.561 190.058 261.55 191.045 261.897 191.859C262.238 192.689 262.889 193.256 263.85 193.56C264.811 193.865 265.683 193.763 266.464 193.255C267.257 192.767 267.834 191.952 268.196 190.807L269.384 187.055L263.137 185.077L261.928 188.899Z" fill="white"/>
<path d="M253.118 206.153L261.23 205.405L262.556 202.607L256.224 199.604L256.944 198.087L272.102 205.275L269.942 209.829C269.14 211.52 268.129 212.608 266.908 213.091C265.68 213.589 264.408 213.526 263.093 212.902C261.994 212.381 261.205 211.618 260.726 210.611C260.255 209.626 260.195 208.464 260.546 207.126L252.255 207.975L253.118 206.153ZM263.792 203.194L262.342 206.251C261.78 207.437 261.648 208.463 261.945 209.33C262.235 210.211 262.864 210.882 263.833 211.341C264.831 211.814 265.734 211.888 266.543 211.564C267.367 211.246 268.073 210.465 268.663 209.222L270.103 206.186L263.792 203.194Z" fill="white"/>
<path d="M247.601 222.553L251.805 216.184L249.286 212.767L250.264 211.285L260.715 225.514L259.671 227.097L242.492 223.063L243.47 221.581L247.601 222.553ZM249.041 222.9L258.437 225.132L252.689 217.371L249.041 222.9Z" fill="white"/>
<path d="M236.273 229.775C237.004 228.948 237.794 228.344 238.643 227.963C239.482 227.594 240.318 227.457 241.152 227.553C241.985 227.649 242.73 227.966 243.387 228.504L242.21 229.834C241.546 229.354 240.768 229.147 239.877 229.213C238.997 229.29 238.15 229.79 237.334 230.713C236.581 231.564 236.204 232.426 236.201 233.299C236.2 234.195 236.535 234.939 237.206 235.533C237.745 236.01 238.299 236.253 238.866 236.264C239.446 236.285 239.993 236.16 240.51 235.89C241.038 235.631 241.715 235.226 242.543 234.677C243.513 234.039 244.322 233.569 244.973 233.269C245.623 232.968 246.329 232.845 247.092 232.9C247.855 232.955 248.626 233.327 249.405 234.015C250.053 234.588 250.48 235.264 250.687 236.045C250.906 236.836 250.889 237.665 250.636 238.53C250.383 239.396 249.907 240.224 249.208 241.016C248.18 242.179 247.066 242.859 245.865 243.058C244.666 243.279 243.569 243.047 242.575 242.36L243.783 240.993C244.372 241.365 245.077 241.486 245.896 241.356C246.728 241.237 247.504 240.769 248.224 239.954C248.892 239.199 249.244 238.389 249.282 237.526C249.331 236.672 249.008 235.939 248.313 235.324C247.785 234.858 247.238 234.619 246.671 234.609C246.103 234.599 245.555 234.723 245.027 234.982C244.489 235.254 243.811 235.658 242.994 236.196C242.046 236.81 241.235 237.268 240.562 237.57C239.901 237.883 239.189 238.012 238.427 237.957C237.664 237.902 236.899 237.535 236.131 236.857C235.544 236.338 235.124 235.69 234.872 234.912C234.62 234.134 234.603 233.296 234.819 232.399C235.036 231.501 235.52 230.627 236.273 229.775Z" fill="white"/>
<path d="M238.648 251.273L227.382 238.843L228.627 237.715L239.893 250.145L238.648 251.273Z" fill="white"/>
<path d="M220.536 246.207L215.698 249.797L214.883 248.698L221.07 244.107L231.067 257.579L229.718 258.58L220.536 246.207Z" fill="white"/>
<path d="M212.723 181.697C221.783 176.782 240.72 166.093 256.5 158" stroke="white" stroke-width="3" stroke-dasharray="9 9"/>
<path d="M108.711 222.334L94.6621 215.238L86.1551 219.419L101.524 236.365L105.551 258.886L114.058 254.705L117.023 239.248L148.215 223.919L156.204 275.992L167.546 270.418L173.736 211.377L204.929 196.048C209.636 193.734 211.579 188.089 209.279 183.41C206.979 178.73 201.323 176.82 196.616 179.133L165.424 194.463L114.901 163.293L103.558 168.867L139.903 207.005L108.711 222.334Z" fill="white"/>
<path d="M162.192 67.4511L154.697 66.3561L151.347 59.5282C151.256 59.3413 151.105 59.1899 150.919 59.0979C150.453 58.8665 149.886 59.0594 149.653 59.5282L146.303 66.3561L138.808 67.4511C138.602 67.4808 138.413 67.5787 138.268 67.727C138.093 67.9077 137.997 68.1508 138 68.4028C138.003 68.6549 138.106 68.8953 138.286 69.0713L143.708 74.3858L142.427 81.8903C142.397 82.0649 142.416 82.2444 142.482 82.4086C142.549 82.5727 142.659 82.7149 142.802 82.819C142.945 82.9231 143.113 82.985 143.289 82.9976C143.465 83.0102 143.641 82.973 143.797 82.8903L150.5 79.3473L157.204 82.8903C157.387 82.9882 157.599 83.0209 157.803 82.9853C158.316 82.8962 158.662 82.4066 158.573 81.8903L157.292 74.3858L162.714 69.0713C162.862 68.9259 162.959 68.736 162.989 68.5282C163.069 68.0089 162.709 67.5282 162.192 67.4511V67.4511Z" fill="white"/>
<path d="M188.573 80.6998L183.839 78.6757L182.817 73.6892C182.789 73.5527 182.716 73.4288 182.61 73.3368C182.344 73.1057 181.938 73.1301 181.704 73.391L178.325 77.1982L173.214 76.5843C173.073 76.5671 172.932 76.5969 172.811 76.667C172.665 76.7525 172.56 76.8921 172.519 77.055C172.477 77.2179 172.503 77.3908 172.591 77.5357L175.236 81.9123L173.099 86.5194C173.049 86.6265 173.031 86.7455 173.046 86.8629C173.061 86.9802 173.11 87.0913 173.185 87.1834C173.261 87.2756 173.361 87.3451 173.475 87.3842C173.588 87.4232 173.71 87.4302 173.826 87.4044L178.841 86.3026L182.632 89.7639C182.736 89.8592 182.87 89.9176 183.01 89.9305C183.362 89.9636 183.674 89.7091 183.705 89.361L184.158 84.3031L188.637 81.8351C188.759 81.7674 188.855 81.6623 188.911 81.5337C189.052 81.2133 188.899 80.8404 188.573 80.6998V80.6998Z" fill="white"/>
<path d="M127.348 76.5843L122.237 77.1982L118.858 73.391C118.766 73.2867 118.641 73.2158 118.503 73.1892C118.156 73.1223 117.817 73.3462 117.745 73.6892L116.723 78.6757L111.989 80.6998C111.858 80.7552 111.751 80.8516 111.682 80.9726C111.598 81.1197 111.577 81.2932 111.622 81.4549C111.668 81.6166 111.777 81.7533 111.925 81.835L116.404 84.303L116.857 89.361C116.868 89.4787 116.911 89.5909 116.983 89.685C117.055 89.779 117.152 89.8511 117.264 89.893C117.376 89.935 117.497 89.9451 117.615 89.9223C117.732 89.8995 117.841 89.8446 117.93 89.7639L121.721 86.3026L126.736 87.4043C126.873 87.4352 127.018 87.4188 127.146 87.36C127.468 87.2123 127.61 86.8362 127.463 86.5193L125.326 81.9123L127.971 77.5357C128.043 77.4161 128.074 77.2766 128.058 77.1377C128.02 76.7892 127.701 76.5431 127.348 76.5843V76.5843Z" fill="white"/>
</svg>
